<svg version="1.2" xmlns="http://www.w3.org/2000/svg" viewBox="0 0 24 24" width="24" height="24">
	<title>insta-svg</title>
	<style>
		.s0 { fill: #ffffff } 
	</style>
	<path id="Layer" fill-rule="evenodd" class="s0" d="m6 12c0-3.3 2.7-6 6-6 3.3 0 6 2.7 6 6 0 3.3-2.7 6-6 6-3.3 0-6-2.7-6-6zm6 4c2.2 0 4-1.8 4-4 0-2.2-1.8-4-4-4-2.2 0-4 1.8-4 4 0 2.2 1.8 4 4 4z"/>
	<path id="Layer" class="s0" d="m18 5c-0.6 0-1 0.4-1 1 0 0.6 0.4 1 1 1 0.6 0 1-0.4 1-1 0-0.6-0.4-1-1-1z"/>
	<path id="Layer" fill-rule="evenodd" class="s0" d="m4.3 1.7c1.3-0.7 2.9-0.7 6.3-0.7h2.8c3.4 0 5 0 6.3 0.7 1.2 0.5 2.1 1.4 2.6 2.6 0.7 1.3 0.7 2.9 0.7 6.3v2.8c0 3.4 0 5-0.7 6.3-0.5 1.2-1.4 2.1-2.6 2.6-1.3 0.7-2.9 0.7-6.3 0.7h-2.8c-3.4 0-5 0-6.3-0.7-1.2-0.5-2.1-1.4-2.6-2.6-0.7-1.3-0.7-2.9-0.7-6.3v-2.8c0-3.4 0-5 0.7-6.3 0.5-1.2 1.4-2.1 2.6-2.6zm9.1 1.3h-2.8c-1.7 0-2.9 0-3.8 0.1-0.9 0-1.3 0.2-1.6 0.3-0.8 0.4-1.4 1-1.8 1.8-0.1 0.3-0.3 0.7-0.3 1.6-0.1 0.9-0.1 2.1-0.1 3.8v2.8c0 1.7 0 2.9 0.1 3.8 0 0.9 0.2 1.3 0.3 1.6 0.4 0.8 1 1.4 1.8 1.8 0.3 0.1 0.7 0.3 1.6 0.3 0.9 0.1 2.1 0.1 3.8 0.1h2.8c1.7 0 2.9 0 3.8-0.1 0.9 0 1.3-0.2 1.6-0.3 0.8-0.4 1.4-1 1.8-1.8 0.1-0.3 0.3-0.7 0.3-1.6 0.1-0.9 0.1-2.1 0.1-3.8v-2.8c0-1.7 0-2.9-0.1-3.8 0-0.9-0.2-1.3-0.3-1.6-0.4-0.8-1-1.4-1.8-1.8-0.3-0.1-0.7-0.3-1.6-0.3-0.9-0.1-2.1-0.1-3.8-0.1z"/>
</svg>